<svg id="katman_1" data-name="katman 1" xmlns="http://www.w3.org/2000/svg" xmlns:xlink="http://www.w3.org/1999/xlink" viewBox="0 0 860.61962 1080.57835">
  <defs>
    <style>
      .cls-1 {
        fill: none;
      }

      .cls-2 {
        clip-path: url(#clip-path);
      }

      .cls-3 {
        fill: #e2e2e2;
      }

      .cls-4 {
        fill: #eaeaea;
      }

      .cls-5 {
        fill: #efefef;
      }

      .cls-6 {
        fill: #dadada;
      }

      .cls-7 {
        fill: #7c7c7c;
      }
    </style>
    <clipPath id="clip-path" transform="translate(-109.69019 0.23919)">
      <rect class="cls-1" width="1080" height="1080"/>
    </clipPath>
  </defs>
  <g class="cls-2">
    <path class="cls-3" d="M784.35,539.59061a4.48512,4.48512,0,0,1-3.2.9H298.85a6.20364,6.20364,0,0,1-3.2-.9Z" transform="translate(-109.69019 0.23919)"/>
    <path class="cls-4" d="M541.45,538.6c-.4,1.5-1.8,2.1-2.9,2.9v-2.9Z" transform="translate(-109.69019 0.23919)"/>
    <path class="cls-5" d="M539.04682,539.08338c.9.4,2,.6,1.9,1.9C539.04682,541.08338,539.04682,541.08338,539.04682,539.08338Z" transform="translate(-109.69019 0.23919)"/>
    <path class="cls-6" d="M540.47452,540.54969a.824.824,0,0,1-1-.7v-.3C540.27457,539.44969,540.67447,539.74969,540.47452,540.54969Z" transform="translate(-109.69019 0.23919)"/>
    <path class="cls-7" d="M539.47452,540.52451l1-1C540.67447,540.32456,540.27457,540.72446,539.47452,540.52451Z" transform="translate(-109.69019 0.23919)"/>
    <g>
      <path d="M340.29444,761.06485c4.4,3.8,8.7,7.5,13.1,11.3,33.1,29.1,51.6,65.6,56.9,109.3,3.9,32.4-1.3,63.3-13.1,93.3a253.52792,253.52792,0,0,1-32.2,56.9c-5.7,7.9-6.2,7.9-15.3,3.5a393.63854,393.63854,0,0,1-50.2-29.3c-86.4-59.7-144.7-139.8-173.5-240.9-3.9-13.5-5.6-11.7,5.9-22.3a236.47763,236.47763,0,0,1,115.5-58.6,331.92264,331.92264,0,0,1,68.9-6,724.37339,724.37339,0,0,1,76.5,5.2c43.9,5.2,87.7,10.7,131.6,14.7,38.7,3.5,77.4,2.1,115.4-8.4a205.8796,205.8796,0,0,0,60.6-27.4c3.4-2.3,6.9-4.4,10.5-6.5a2.35191,2.35191,0,0,1,3.2.6h0a2.01,2.01,0,0,1,.4,1.3,65.22036,65.22036,0,0,1-1.2,19.7,196.17971,196.17971,0,0,1-10.3,34.3c-2.9,7.3-5.7,14.6-8.6,21.9-1.3,3.4.5,3.7,3.2,3.2a125.18963,125.18963,0,0,0,22.6-26.1c23.2-34.3,38.7-71.9,43-113.4a224.30612,224.30612,0,0,0-30.8-141.3,249.18548,249.18548,0,0,0-33.9-44c-4-4.2-7.8-8.5-11.5-12.9a2.85268,2.85268,0,0,1,.4-4h0a1.3797,1.3797,0,0,1,.4-.3,12.04931,12.04931,0,0,1,9.3-2.6c3.6,5.5,10.1,6.8,15.1,10.3,41.1,28.9,66.2,69.4,83,115.6s27.4,93.2,29.1,142.3a6.09414,6.09414,0,0,0,2.6,5.2c5.2-3,8.4-8.1,12.1-12.7,5.5-7,12-13.1,21.7-12,10.3,1.2,13.8,9.5,16.3,18.1,13.3,45.6,24.5,91.6,24.2,139.5,0,7.3-1,14.8,1.1,22.4,4.9.4,6-3.7,7.9-6.4,16.7-23.7,29-49.8,41.3-76,2.2-4.6,3.2-10.7,10.6-9.7.7,5.9-1.5,11.4-2.8,17a428.48626,428.48626,0,0,1-118.9,211.6,423.05786,423.05786,0,0,1-159.6,98.8c-1.9.69995-3.9,1.4-5.8,2-7.2,2.1-7.7,1.9-11.5-5.19995-12.3-23.69995-21.3-48.5-22.1-75.3-1.7-52.8,17.4-95.7,62.3-125.6l6.2-4.1c.7-5.6-2.3-4.1-5.2-2.8-51.6,17.7-81.5,54.2-91.4,107.3-5.9,31-2.7,61.7,6.5,91.7,2.2,7.1,4.6,14.1,6.8,21.2,1.1,3.5,0,5.5-3.6,6.4s-7.3,1.3-10.9,2a390.45556,390.45556,0,0,1-87.7,6.1,437.91161,437.91161,0,0,1-104.8-17.1c-12.4-3.7-12.5-3.80005-6.2-15.80005a316.97044,316.97044,0,0,0,27.3-67.6,223.29381,223.29381,0,0,0,4.4-94.5c-8.5-49-34.6-86.8-76.5-113.5a117.52183,117.52183,0,0,0-25.2-12.9C340.29444,757.26486,339.29444,758.16482,340.29444,761.06485Z" transform="translate(-109.69019 0.23919)"/>
      <path class="cls-3" d="M463.99445,228.66484c-14.1,24.9-26.3,50.2-43.6,72.5a276.18474,276.18474,0,0,1-19.9,22q-53.1,55.35-106.2,111c-10.5,11.1-9.7,14.2,4.9,19.1,13.7,4.6,27.4,9.3,41.1,13.5a165.35546,165.35546,0,0,0,115.1-5.2c53.4-22,107.7-41.9,161.6-62.5a17.15021,17.15021,0,0,1,16.3.8,319.412,319.412,0,0,1,47.1,31.9,175.03707,175.03707,0,0,1,43.9,54.7,130.15421,130.15421,0,0,1,14,47.2,109.44777,109.44777,0,0,1-10.5,57.7,131.36544,131.36544,0,0,1-44.4,52.2,194.3499,194.3499,0,0,1-84.4,33.3c-28,4.3-56,2.6-83.9-1.1-45.8-5.9-91.6-12.3-137.5-18.1a459.43115,459.43115,0,0,0-87.7-3.1c-51,3.4-99,17-143,43.9a296.402,296.402,0,0,0-26.8,17.8c-2.7,2.1-4.5,1.2-5.2-2.1a386.02,386.02,0,0,1-5.2-65.3c.8-90.1,26.5-172.4,78.3-246.1a425.195,425.195,0,0,1,184.3-149.1,411.67525,411.67525,0,0,1,82.7-25.3c2-.4,4.1-.6,6.1-.9C461.79444,227.26483,462.19446,227.66484,463.99445,228.66484Z" transform="translate(-109.69019 0.23919)"/>
      <path d="M897.49445,419.46484a244.0907,244.0907,0,0,0-91.1-50.9,262.63139,262.63139,0,0,0-92.9-9.8c-38.6,2.6-75.8,11.5-112.7,22.1-45.7,13.1-90,29.9-134.2,47-15,5.8-30,11.5-44.9,17.6a53.55142,53.55142,0,0,1-38.6,1.3c-12.5-4.2-25.4-7-38.2-10.3-3.9-1.1-7.7-2.3-11.4-3.3-.7-3.7,1.8-5,3.5-6.6,11-9.9,22.3-19.6,33.2-29.7,55.2-50.9,100.2-109.4,131.2-178a483.2349,483.2349,0,0,0,36.4-120.5c5.2-31,4.2-61.7-6.6-91.6a19.10222,19.10222,0,0,1-1.2-4.7,2.43233,2.43233,0,0,1,1.1-2,3.65944,3.65944,0,0,1,2.3-.2,12.89856,12.89856,0,0,1,7,4.9c22.6,27.4,37.5,58.1,40.8,93.8a212.95818,212.95818,0,0,1-.4,38.3,48.35145,48.35145,0,0,1-7.9,24.4,73.00556,73.00556,0,0,0-4.7,8.7,4.89029,4.89029,0,0,0,1,6.7,5.49273,5.49273,0,0,0,7.7,0,70.22023,70.22023,0,0,0,6.1-6.1q14.85-16.5,29.7-33.2a77.2798,77.2798,0,0,1,6.7-7.3c4.8-4.4,8.7-3.8,12,2a95.1726,95.1726,0,0,1,11.3,35.1,126.29034,126.29034,0,0,1-2.1,44.2c-.7,3.2-1.4,6.5-2,9.7-1.7,8.9-1.4,9.7,7.6,12a412.24748,412.24748,0,0,1,84.7,31.3,429.42669,429.42669,0,0,1,169.3,150.1C902.19446,417.56485,901.69446,419.46484,897.49445,419.46484Z" transform="translate(-109.69019 0.23919)"/>
      <path class="cls-3" d="M961.99445,728.76486c-3.9,5-4.5,11.4-7.2,17-13.1,27.5-26.9,54.8-44.8,79.6a118.21581,118.21581,0,0,1-7.7,9.5,3.51085,3.51085,0,0,1-5-.3,3.46432,3.46432,0,0,1-.8-1.6,49.261,49.261,0,0,1-1-8.5c0-7-.2-14,0-21a337.16184,337.16184,0,0,0-7.2-73.6,649.59648,649.59648,0,0,0-16.4-67.1,62.58118,62.58118,0,0,0-5.3-12.5c-3.1-5.2-7.2-6-12.5-2.9a33.52365,33.52365,0,0,0-10.3,8.8c-4.6,6.3-9.4,12.5-14.2,18.7a45.08374,45.08374,0,0,1-4,4.7,3.76149,3.76149,0,0,1-5.2-1.2h0a10.8666,10.8666,0,0,1-1.3-3.4,62.63453,62.63453,0,0,1-.4-8.6c.5-16.5-2.1-32.8-4.3-49-4.5-33.5-13.7-66.1-24.9-98.1a263.40864,263.40864,0,0,0-35.9-67.7,184.204,184.204,0,0,0-49.6-47.6c-2.4-1.5-4.8-3.2-7.1-4.9-2.9-2.1-2.9-2.3.3-6.9,14.7-3.5,29.4-2.6,44.2-.5a305.85925,305.85925,0,0,1,79.7,21.2,260.9694,260.9694,0,0,1,99.5,75.4,298.12439,298.12439,0,0,1,31.9,46.9,75.92285,75.92285,0,0,1,7,18.4,426.306,426.306,0,0,1,9.5,128.9C967.79444,697.96481,966.59442,713.66482,961.99445,728.76486Z" transform="translate(-109.69019 0.23919)"/>
    </g>
  </g>
</svg>
